<?xml version="1.0" encoding="UTF-8"?>
<svg id="Capa_1" xmlns="http://www.w3.org/2000/svg" version="1.1" viewBox="0 0 841.89 203">
  <!-- Generator: Adobe Illustrator 30.4.0, SVG Export Plug-In . SVG Version: 2.1.4 Build 226)  -->
  <defs>
    <style>
      .st0 {
        fill: #fff;
      }

      .st1 {
        isolation: isolate;
      }

      .st2 {
        fill: #f7a800;
      }
    </style>
  </defs>
  <g>
    <path class="st0" d="M38.53,108.84c5.01-2.93,2.16-9.97,6.37-12.44,3.78-2.21,5.34-5.21,6.75-8.66,7.94-19.44,15.88-38.89,23.79-58.34,1.62-3.97,3.26-7.94,4.69-11.98.92-2.6,2.05-4.07,5.48-3.93,7.77.32,15.56.1,23.77.1-5.96,22.66-11.86,45.05-17.9,68,13.12-2.83,25.57-5.47,37.99-8.29.67-.15,1.58-1.85,1.38-2.6-4.49-17.41-9.13-34.8-13.72-52.19-.4-1.51-.67-3.06-1.07-4.93,8.74,0,17.35-.06,25.96.1.84.02,2.03,1.32,2.42,2.25,6.36,15.31,12.63,30.67,19.05,46.34,6.16-2.83,11.04-6.81,14.42-12.76,2.5,5.35,1.25,11.14-2.18,14.89-6.72,7.34-16.06,10.18-25.3,12.62-17.86,4.71-35.92,8.75-53.94,12.89-16.64,3.83-33.52,6.87-49.15,13.82-2.87,1.28-5.45,3.13-8.8,5.09v.02Z"/>
    <path class="st0" d="M214.65,187.79c-5.35-.88-10.25-1.76-15.17-2.48-7.67-1.13-15.35-2.21-23.05-3.19-4.63-.59-9.34-.74-13.92-1.55-1.29-.23-2.9-1.96-3.26-3.27-2.89-10.4-5.48-20.88-8.22-31.32-1.86-7.06-3.81-14.09-5.69-21.02,12.65-4.22,25.28-8.43,38.45-12.83,9.98,24.47,20.33,49.83,30.87,75.65"/>
    <path class="st0" d="M17.57,163.86c0-2.1-.26-4.23.05-6.29,1.65-11.03,9.31-18.1,18.7-23.54,14.09-8.17,30.02-11.74,45.93-15.24,12.98-2.86,25.95-5.75,38.83-8.96,15.06-3.75,30.21-7.33,44.96-11.99,12.01-3.79,23.05-9.58,28.75-22.32,2.29,5.1,2.02,9.55,1,13.97-2.36,10.2-10.42,15.79-19.88,18.82-18.33,5.88-36.97,10.96-55.6,15.98-22.06,5.95-44.3,11.33-66.36,17.27-10.42,2.81-19.86,7.73-28.08,14.43-2.77,2.26-4.91,5.2-7.33,7.83-.33.02-.65.03-.98.05"/>
    <path class="st0" d="M28.4,134.13c-2.5-3.81-1.61-9.01,1.47-13.08,5.3-7,13.04-10.76,21.25-13.08,15.7-4.42,31.65-8.09,47.55-11.84,21.91-5.18,44.3-8.71,65.41-16.61,8.94-3.35,16.68-8.38,21.25-16.8.3-.55.76-1.03,1.21-1.63,3.58,6.05.85,15.21-4.13,20.38-6.99,7.27-16.21,10.73-25.81,13.21-17.89,4.62-35.92,8.77-53.88,13.16-15.76,3.85-31.6,7.48-47.25,11.73-10.14,2.75-19.66,7-27.07,14.56"/>
    <path class="st0" d="M11.33,187.71c3.23-14.33,10.82-25.3,24.58-32.41,12.23-6.32,25.47-9.64,39.46-13.47-.97,4.11-1.72,7.56-2.62,10.99-2.11,8.04-4.36,16.05-6.41,24.11-.69,2.7-2.1,3.63-5.15,3.92-10.23.96-20.43,2.29-30.6,3.68-6.46.88-12.87,2.13-19.26,3.2"/>
  </g>
  <path class="st0" d="M419.38,13.49v70.93c0,41.05-23.39,56.78-60.64,56.78s-60.65-15.73-60.65-56.78V13.49h33.42v63.07c0,26.89,10.69,37.12,27.23,37.12s27.23-10.22,27.23-37.12V13.49h33.41,0Z"/>
  <path class="st0" d="M565.57,59.1c0,34.92-30.07,44.51-60.81,44.51h-26.9v35.7h-33.41V13.49h58.64c29.07,0,62.48,8.18,62.48,45.61M531.82,59.26c0-10.54-7.18-17.46-25.39-17.46h-28.57v33.5h28.57c18.21,0,25.39-6.76,25.39-16.04"/>
  <path class="st0" d="M639.08,119.97c15.04,0,29.57-4.09,42.27-8.34v22.49c-8.35,4.25-24.89,6.76-42.44,6.76-40.43,0-61.48-15.57-61.48-43.1s20.88-44.98,53.13-44.98c36.42,0,54.46,19.97,54.46,51.12h-73.34c2.67,8.97,10.19,16.04,27.4,16.04M611.02,90.56h41.6c-1.67-10.38-8.19-14.94-22.05-14.94-11.19.31-17.88,5.19-19.55,14.94"/>
  <path class="st0" d="M823.02,13.49v70.93c0,41.05-23.39,56.78-60.64,56.78s-60.65-15.73-60.65-56.78V13.49h33.42v63.07c0,26.89,10.69,37.12,27.23,37.12s27.23-10.22,27.23-37.12V13.49h33.41Z"/>
  <g class="st1">
    <g class="st1">
      <path class="st0" d="M317.2,163.92h3.31v13.51c0,2.35-.28,4.22-.85,5.6-.57,1.38-1.6,2.51-3.08,3.37-1.48.87-3.43,1.3-5.84,1.3s-4.26-.38-5.75-1.13c-1.49-.75-2.55-1.85-3.19-3.28s-.96-3.38-.96-5.86v-13.51h3.31v13.49c0,2.03.2,3.53.61,4.49.4.96,1.1,1.7,2.08,2.22.98.52,2.19.78,3.61.78,2.43,0,4.17-.52,5.2-1.55,1.03-1.03,1.55-3.01,1.55-5.95v-13.49Z"/>
      <path class="st0" d="M325.99,187.3v-23.38h3.4l13.14,18.36v-18.36h3.17v23.38h-3.4l-13.14-18.37v18.37h-3.17Z"/>
      <path class="st0" d="M351.82,187.3v-23.38h3.31v23.38h-3.31Z"/>
      <path class="st0" d="M368.12,187.3l-9.69-23.38h3.58l6.5,16.98c.52,1.36.96,2.64,1.31,3.83.39-1.28.84-2.55,1.35-3.83l6.76-16.98h3.38l-9.79,23.38h-3.4Z"/>
      <path class="st0" d="M384.35,187.3v-23.38h18.09v2.76h-14.78v7.16h13.84v2.74h-13.84v7.96h15.36v2.76h-18.67Z"/>
      <path class="st0" d="M407.64,187.3v-23.38h11.09c2.23,0,3.93.21,5.09.63s2.09,1.16,2.78,2.22c.69,1.06,1.04,2.24,1.04,3.52,0,1.66-.57,3.06-1.72,4.19s-2.92,1.86-5.32,2.17c.88.39,1.54.78,2,1.16.97.83,1.88,1.87,2.75,3.11l4.35,6.36h-4.16l-3.31-4.86c-.97-1.4-1.76-2.48-2.39-3.22-.63-.74-1.19-1.27-1.68-1.56-.5-.3-1-.51-1.51-.62-.38-.07-.99-.11-1.84-.11h-3.84v10.38h-3.31ZM410.95,174.24h7.12c1.51,0,2.7-.15,3.55-.44.85-.29,1.5-.76,1.95-1.4.44-.64.67-1.34.67-2.1,0-1.11-.43-2.01-1.29-2.73-.86-.71-2.22-1.07-4.07-1.07h-7.92v7.73Z"/>
      <path class="st0" d="M431.7,179.79l3.12-.26c.15,1.17.49,2.13,1.03,2.88s1.38,1.36,2.52,1.82c1.14.46,2.42.69,3.84.69,1.26,0,2.38-.18,3.34-.53s1.69-.83,2.16-1.44.71-1.28.71-2-.23-1.38-.68-1.92-1.21-1.01-2.25-1.38c-.67-.25-2.16-.62-4.45-1.14s-3.91-1-4.83-1.46c-1.2-.58-2.09-1.31-2.67-2.18-.59-.87-.88-1.84-.88-2.91,0-1.18.36-2.28,1.08-3.31s1.76-1.8,3.14-2.34c1.38-.53,2.91-.8,4.59-.8,1.85,0,3.49.28,4.91.84,1.42.56,2.51,1.38,3.27,2.46.76,1.08,1.17,2.31,1.23,3.68l-3.17.22c-.17-1.48-.75-2.59-1.73-3.35-.98-.75-2.44-1.13-4.36-1.13s-3.46.34-4.38,1.03c-.92.69-1.37,1.51-1.37,2.48,0,.84.32,1.53.97,2.07.64.54,2.3,1.1,4.99,1.67,2.69.57,4.54,1.07,5.54,1.49,1.46.63,2.53,1.42,3.22,2.38.69.96,1.04,2.07,1.04,3.32s-.38,2.42-1.14,3.52c-.76,1.1-1.86,1.96-3.28,2.57-1.43.61-3.04.92-4.82.92-2.26,0-4.16-.31-5.69-.92-1.53-.62-2.73-1.54-3.6-2.78-.87-1.24-1.33-2.64-1.37-4.2Z"/>
      <path class="st0" d="M456.7,187.3v-23.38h3.31v23.38h-3.31Z"/>
      <path class="st0" d="M465.84,187.3v-23.38h8.62c1.95,0,3.43.11,4.45.33,1.43.31,2.66.87,3.67,1.67,1.32,1.04,2.31,2.37,2.96,4,.65,1.62.98,3.47.98,5.56,0,1.78-.22,3.35-.67,4.72s-1.01,2.51-1.71,3.4c-.69.9-1.45,1.61-2.28,2.12s-1.82.91-2.99,1.17-2.51.4-4.02.4h-9.03ZM469.15,184.54h5.34c1.65,0,2.94-.14,3.88-.43.94-.29,1.69-.69,2.24-1.21.79-.73,1.4-1.72,1.83-2.96.44-1.24.66-2.74.66-4.5,0-2.45-.43-4.32-1.29-5.64-.86-1.31-1.9-2.19-3.13-2.64-.89-.32-2.32-.48-4.28-.48h-5.26v17.86Z"/>
      <path class="st0" d="M488.33,187.3l9.61-23.38h3.57l10.24,23.38h-3.77l-2.92-7.08h-10.46l-2.75,7.08h-3.51ZM495.55,177.7h8.48l-2.61-6.47c-.8-1.97-1.39-3.58-1.78-4.85-.32,1.5-.77,2.99-1.35,4.46l-2.75,6.86Z"/>
      <path class="st0" d="M514.39,187.3v-23.38h8.62c1.95,0,3.43.11,4.45.33,1.43.31,2.66.87,3.67,1.67,1.32,1.04,2.31,2.37,2.96,4s.98,3.47.98,5.56c0,1.78-.22,3.35-.67,4.72-.44,1.37-1.01,2.51-1.71,3.4-.69.9-1.45,1.61-2.28,2.12s-1.82.91-2.99,1.17-2.51.4-4.02.4h-9.03ZM517.7,184.54h5.34c1.65,0,2.94-.14,3.88-.43s1.69-.69,2.24-1.21c.78-.73,1.4-1.72,1.83-2.96.44-1.24.66-2.74.66-4.5,0-2.45-.43-4.32-1.29-5.64-.86-1.31-1.9-2.19-3.13-2.64-.89-.32-2.31-.48-4.28-.48h-5.25v17.86Z"/>
      <path class="st0" d="M549.33,187.3v-23.38h9.44c1.66,0,2.93.08,3.81.22,1.23.19,2.26.56,3.09,1.09.83.54,1.5,1.29,2,2.26.51.97.76,2.03.76,3.19,0,1.99-.68,3.67-2.03,5.05-1.35,1.38-3.8,2.06-7.34,2.06h-6.42v9.5h-3.31ZM552.64,175.04h6.47c2.14,0,3.66-.37,4.56-1.12s1.35-1.79,1.35-3.14c0-.98-.27-1.82-.79-2.51s-1.23-1.16-2.09-1.38c-.56-.14-1.59-.21-3.09-.21h-6.4v8.36Z"/>
      <path class="st0" d="M572.71,187.3v-23.38h18.09v2.76h-14.78v7.16h13.84v2.74h-13.84v7.96h15.36v2.76h-18.67Z"/>
      <path class="st0" d="M596,187.3v-23.38h11.09c2.23,0,3.92.21,5.08.63,1.16.42,2.09,1.16,2.78,2.22.69,1.06,1.04,2.24,1.04,3.52,0,1.66-.57,3.06-1.72,4.19-1.15,1.14-2.92,1.86-5.32,2.17.88.39,1.54.78,2,1.16.97.83,1.88,1.87,2.75,3.11l4.35,6.36h-4.16l-3.31-4.86c-.97-1.4-1.76-2.48-2.39-3.22-.62-.74-1.19-1.27-1.68-1.56-.5-.3-1-.51-1.51-.62-.38-.07-.99-.11-1.84-.11h-3.84v10.38h-3.31ZM599.31,174.24h7.12c1.51,0,2.7-.15,3.55-.44.85-.29,1.5-.76,1.95-1.4.44-.64.67-1.34.67-2.1,0-1.11-.43-2.01-1.29-2.73-.86-.71-2.22-1.07-4.07-1.07h-7.92v7.73Z"/>
      <path class="st0" d="M637.6,163.92h3.31v13.51c0,2.35-.28,4.22-.85,5.6-.57,1.38-1.59,2.51-3.08,3.37-1.48.87-3.43,1.3-5.84,1.3s-4.26-.38-5.75-1.13c-1.49-.75-2.55-1.85-3.19-3.28s-.96-3.38-.96-5.86v-13.51h3.31v13.49c0,2.03.2,3.53.61,4.49.4.96,1.1,1.7,2.08,2.22.98.52,2.19.78,3.61.78,2.43,0,4.17-.52,5.2-1.55s1.55-3.01,1.55-5.95v-13.49Z"/>
      <path class="st0" d="M643.68,187.3l9.61-23.38h3.57l10.24,23.38h-3.77l-2.92-7.08h-10.46l-2.75,7.08h-3.52ZM650.9,177.7h8.48l-2.61-6.47c-.8-1.97-1.39-3.58-1.77-4.85-.32,1.5-.77,2.99-1.35,4.46l-2.75,6.86Z"/>
      <path class="st0" d="M669.7,187.3v-23.38h3.39l13.14,18.36v-18.36h3.17v23.38h-3.39l-13.14-18.37v18.37h-3.17Z"/>
      <path class="st0" d="M692.22,187.3l9.61-23.38h3.57l10.24,23.38h-3.77l-2.92-7.08h-10.46l-2.75,7.08h-3.51ZM699.44,177.7h8.48l-2.61-6.47c-.8-1.97-1.39-3.58-1.78-4.85-.32,1.5-.77,2.99-1.35,4.46l-2.75,6.86Z"/>
      <path class="st0" d="M742.48,163.92h3.31v13.51c0,2.35-.29,4.22-.85,5.6-.57,1.38-1.6,2.51-3.08,3.37-1.48.87-3.43,1.3-5.84,1.3s-4.26-.38-5.75-1.13c-1.49-.75-2.55-1.85-3.19-3.28-.64-1.43-.96-3.38-.96-5.86v-13.51h3.31v13.49c0,2.03.2,3.53.61,4.49.4.96,1.1,1.7,2.08,2.22.98.52,2.19.78,3.61.78,2.43,0,4.17-.52,5.21-1.55s1.55-3.01,1.55-5.95v-13.49Z"/>
      <path class="st0" d="M751.26,187.3v-23.38h3.4l13.14,18.36v-18.36h3.17v23.38h-3.4l-13.14-18.37v18.37h-3.17Z"/>
      <path class="st0" d="M777.1,187.3v-23.38h3.31v23.38h-3.31Z"/>
      <path class="st0" d="M785.24,175.91c0-3.88,1.11-6.92,3.34-9.11s5.11-3.29,8.63-3.29c2.31,0,4.39.52,6.24,1.55,1.85,1.03,3.27,2.47,4.24,4.31s1.46,3.94,1.46,6.28-.51,4.49-1.54,6.36-2.47,3.29-4.35,4.25c-1.88.96-3.9,1.44-6.07,1.44-2.36,0-4.46-.53-6.31-1.59-1.85-1.06-3.26-2.51-4.21-4.35-.96-1.84-1.43-3.79-1.43-5.84ZM788.65,175.96c0,2.82.81,5.04,2.43,6.66s3.65,2.43,6.1,2.43,4.54-.82,6.15-2.46c1.61-1.64,2.41-3.96,2.41-6.97,0-1.9-.34-3.56-1.03-4.98-.69-1.42-1.7-2.52-3.02-3.3s-2.81-1.17-4.46-1.17c-2.34,0-4.36.75-6.05,2.26-1.69,1.5-2.53,4.02-2.53,7.54ZM795.1,162.49l2.27-4.47h4.03l-3.75,4.47h-2.54Z"/>
      <path class="st0" d="M813.39,187.3v-23.38h3.4l13.14,18.36v-18.36h3.17v23.38h-3.4l-13.14-18.37v18.37h-3.17Z"/>
    </g>
  </g>
  <rect class="st2" x="250.47" y="13.49" width="4.04" height="174.3"/>
</svg>